<svg xmlns="http://www.w3.org/2000/svg" width="734" height="446" viewBox="0 0 734 446">
  <defs>
    <style>
      .cls-1 {
        fill: #d6303c;
        fill-rule: evenodd;
      }

      .cls-2 {
        fill: #fff;
      }
    </style>
  </defs>
  <path id="Shape_6_copy_4" data-name="Shape 6 copy 4" class="cls-1" d="M644.859,119.443c-8.036,11.658-17.981,19.574-26.392,26.447-30.923,25.266-120.861,83.069-120.861,83.069l-1.314-2.882,102.467-71.434S630.728,129.972,613.021,113C595.787,96.485,576,124,576,124s-9.475,10.879-12.908,15.034c-17.3,20.94-61.661,74.153-69.7,84.07L492,220s80.637-103.373,77.364-98.729a106.986,106.986,0,0,0,6.306-10.651s17.032-28.8-5.819-39.372c-23.675-10.954-35,19.593-35,19.593L494.969,213.2l-4.056-5.558s10.22-33.074,21.311-68.355c3.549-13.453,6.749-26,8.555-34.057a107.012,107.012,0,0,0,1.742-12.254s4.693-33.128-20.466-34.137c-26.066-1.045-24.821,31.511-24.821,31.511l4.912,87.1c2.014,21.482,3.217,37.06,3.217,37.06l-3.191,2.938-0.379-.755c-0.321-3.328-7.413-76.913-10.854-112.052-0.525-5.365-4.367-19.017-4.367-19.017s-9.688-28.7-32.118-20.534c-23.046,8.395-7.847,41.8-7.847,41.8l55.186,109.8c0.007,0.078.013,0.131,0.013,0.131l0.334,0.653-3.406,3.136-7.519-14.8c-13.291-21.964-39.071-64.59-49.77-82.442-2.768-4.62-9.946-16.769-9.946-16.769s-17.284-24.444-36.148-9.844c-19.382,15,6.6,39.2,6.6,39.2l95.274,83.569-1.585,2.786s-2.115-1.8-5.768-4.921l-0.228,1.863c-10.26-8.493-63.851-52.869-83.188-69.191-4.119-3.477-15.645-11.662-15.645-11.662s-25.379-15.924-37.17,4.841C321.526,164.577,356,176,356,176l113.381,45.4-0.161,1.323,1.279,0.521,0.83,3.217c-12.681-4.579-78.532-28.332-102.483-36.449-5.106-1.73-18.827-5.133-18.827-5.133s-33.659-5.258-33.659,15.972c0,24.535,34.593,23.827,34.593,23.827L472,227l3,3H333c-10.861,0-25.376-2.675-38.89-6.906-11.6-3.631-22.887-12.786-22.265-25.264,1.643-32.943,41.382-26.931,41.382-26.931a138.89,138.89,0,0,1,16.033,1.823c4.953,0.968,11.48,2.735,19,5.04-4.8-1.942-9.166-3.726-12.9-5.286-10.023-4.183-21.814-8.926-32.845-17.805-9.469-7.621-16.627-20.269-11.484-31.655,13.576-30.062,50.077-11.077,50.077-11.077a138.691,138.691,0,0,1,14.256,7.559c5.737,3.655,13.669,9.615,22.7,16.82-4.754-4.462-8.962-8.518-12.372-11.961-7.637-7.713-16.688-16.624-23.448-29.052-5.8-10.668-7.54-25.079,1.583-33.594,24.086-22.48,50.453,9.065,50.453,9.065a138.792,138.792,0,0,1,10.242,12.453C410.657,92.035,414.645,98.1,425,116c-6.03-11.862-5.864-12.667-9.943-20.682-4.928-9.68-12.39-25.375-15.044-39.283-2.278-11.937.459-26.205,11.75-31.542,29.81-14.09,48.175,21.733,48.175,21.733A138.857,138.857,0,0,1,465.9,61.219c2.7,8.746,4.682,16.642,7.1,33.781-0.9-13.155-1.071-18.224-1.644-27.063-0.7-10.837-1.754-18.972,2.863-32.357,3.962-11.489,12.548-24.3,31.548-23.543,32.962,1.315,28.525,44.493,28.525,44.493A138.928,138.928,0,0,1,532.01,72.5c-1.11,4.923-2.6,11.143-4.342,18.163,3.165-9.813,5.958-18.327,8.059-24.488,3.506-10.279,5.652-18.2,15.047-28.79,8.063-9.094,20.9-17.637,38.163-9.657C618.878,41.576,599,81,599,81s-17.026,26.835-15,24c3.67-3.742,13-15,13-15s30.167-30.622,49.11-7.8C654.086,91.807,651.756,109.436,644.859,119.443Z"/>
  <circle id="Shape_5_copy" data-name="Shape 5 copy" class="cls-2" cx="483.235" cy="214.813" r="22.547"/>
  <path class="cls-1" d="M618.585,227.373c0-3.938,3.959-7.131,8.843-7.131s8.843,3.193,8.843,7.131-3.959,7.13-8.843,7.13S618.585,231.311,618.585,227.373ZM711,243H564c-34.988,56.243-69.073,110.152-69.073,110.152s-44.834,80.775-87.857,86.705c0,0-28.556,3.5-40.506-24.528,0,0-6.36-16.527,7.417-21.676,0,0,8.151-1.781,7.987,5.134,0,0-1.721,26.585,17.032,30.213,0,0,21.537,7.118,50.857-33.066C502.323,324.032,517.519,295.071,552,243H247c-1.575,0-3-.425-3-2s1.425-2,3-2H555c18.42-27.843,33.489-48.42,33.489-48.42s37.993-49.52,64.467-55.332c0,0,29.814-5.947,31.948,17.113,0,0,1.645,9.886-7.987,11.979,0,0-9,1.41-7.416-3.993s2.664-10.078,0-13.12-9.46-10.246-21.679-5.134-29.6,18.9-53.057,53.621c-6.281,9.3-17.376,25.413-28.765,43.286H711c1.575,0,3,.425,3,2S712.575,243,711,243Zm-227.768-5.645a22.532,22.532,0,1,1,22.535-22.532A22.533,22.533,0,0,1,483.232,237.355Zm0-41.071a18.539,18.539,0,1,0,18.541,18.539A18.541,18.541,0,0,0,483.232,196.284ZM270.016,195.6c-1.363,12.686-12.664,37.91-46.875,46.725,18.982,21.657,7.821,49.133-8.9,68.045C198.4,328.29,181.371,337.105,167,340c-30.249,6.094-32.63-21.074-32.63-21.074,1.28-33.564,35.712-49.33,37.653-50.2s5-1.886,5.705-.571a1.84,1.84,0,0,1-.571,2.282c-26.571,8.886-36.512,33.655-36.512,33.655-8.506,25.776,3.744,33.584,23.391,30.233s45.31-34.425,55.338-59.895c6.754-17.153,2.859-26.717-.405-31.139-2.945.61-6.028,1.117-9.293,1.477,0,0-11.858,2.762-18.034-.841-5.989-4.323-2.186-9.745-1.133-10.833,1.782-1.84,4.722-3.487,9.448-3.05,4.894,0.453,12.5,1.553,21.129,10.16,0,0,38.114-9.559,37.091-49.477-0.214-8.338-4.16-16.865-14.705-24.811-5.068,2.5-10.961,5.852-18.963,10.4-20.356,11.57-61.975,71.192-75.877,90.128C115.761,311.22,78.006,339.462,43.66,339.462S10,321.366,10,317.786s3.451-10.268,10.84-10.268c9.355,0,11.08,4.872,11.41,10.838s-7.969,8.759-11.41,7.416a3,3,0,0,0-2.853,0c-1.071.7-.57,2.281-0.57,2.281,6.486,8.608,17.3,7.127,25.826,7.017,35.157-.451,66.6-38.961,66.6-38.961A692.751,692.751,0,0,0,162.9,226.517c25.871-38.981,56.089-56.311,75.443-64.084-1.134-.7-2.309-1.4-3.56-2.086-28.06-15.441-119.869-1.3-139.2,58.184,0,0-7.95,22.523,7.987,27.381s31.92-6.258,49.634-33.085c0,0,7.677-11.4,10.84-33.085a1.826,1.826,0,0,1,1.711-1.712c1.552,0,1.712,2.282,1.712,2.282s-2.142,65.842-57.051,70.163c0,0-22.394,1.334-19.4-22.817,4.218-33.987,39.777-68.08,96.483-74.923,17.082-2.062,40.907-1.559,58.339,6.946,6.086-2.024,10.287-2.911,11.765-3.327,5.907-1.661,9.3-2.512,10.269,0s-2.282,2.852-2.282,2.852a60.171,60.171,0,0,0-14.549,3.4,42.655,42.655,0,0,1,5.992,4.591S271.807,178.939,270.016,195.6Zm-70.039,37.762a8.947,8.947,0,0,0-6.587,1.32,4.753,4.753,0,0,0-1.4,4.384c0.488,1.839,2.488,4.061,7.987,3.993,4.411-.044,16.545-0.451,16.545-1.711S204.349,233.952,199.977,233.362Zm98.127,13.69c16.081-.682,11.41,9.7,11.41,9.7-0.089,28.387-57.621,33.655-57.621,33.655-10.8,11.013-9.879,24.167-6.637,29.566,6.168,10.268,14.624,8.082,14.624,8.082,34.287-4.563,44.786-26.2,45.64-27.38s1.712,0.57,1.712.57C292.09,326.087,265,332,265,332c-22.089,7.01-48.92-6.587-31.934-38.743S282.023,247.735,298.1,247.052Zm-43.358,38.219c1.529,2,23.169-2.618,33.659-10.838,8.009-6.276,9.132-18.331,6.846-19.395-7.8-3.628-19.815,3.237-24.531,7.416C258.282,273.473,253.216,283.268,254.746,285.271Zm90.139-34.226a7.4,7.4,0,0,1,6.846-3.993c4.939,0.147,12.425-.989,12.551,5.705,0,0,14.608-7.274,30.237-7.416a81.927,81.927,0,0,1,13.692,1.141s16.851,1.612,7.416,16.542-33.659,51.909-33.659,51.909-4.249,5.806-1.141,10.268c2.961,4.251,26.825-1.588,47.69-16.538a47.355,47.355,0,0,1,5.366-15.406c16.986-32.156,48.956-45.522,65.038-46.205s11.41,9.7,11.41,9.7C510.242,285.137,452.71,290.4,452.71,290.4c-10.8,11.013-9.879,24.167-6.637,29.566,6.168,10.268,14.624,8.082,14.624,8.082,34.287-4.563,44.786-26.2,45.64-27.38s1.712,0.57,1.712.57C493.836,326.218,464,332,464,332c-17.191,5.455-36.323-2.007-35.759-20.255-8.084,5.984-27.875,18.819-51.978,21.442,0,0-21.817.429-7.987-20.535s33.089-48.487,33.089-48.487,5.564-5.325.57-9.7-15.147-7.831-31.377.57c0,0-16.275,10.168-24.532,21.677s-29.666,45.064-29.666,45.064-4,6.731-10.269,7.986-12.929,2.276-10.269-3.423Zm110.677,34.226c1.53,2,23.17-2.618,33.66-10.838,8.009-6.276,9.131-18.331,6.846-19.395-7.8-3.628-19.815,3.237-24.532,7.416C459.1,273.473,454.033,283.268,455.562,285.271Zm119.806,10.838s0.9-1.054,1.711-.57-13.213,21.058-36.512,30.233c0,0-11.282,5.813-11.98,4.563s-0.839-2.181,0-2.852C528.587,327.483,558.474,316.377,575.368,296.109Zm34.23-46.775s0.487-2.282,5.135-2.282a66.27,66.27,0,0,1,8.557.571s2.523,0.192-.57,4.563-38.224,65.6-38.224,65.6-4.156,5.529,0,8.556c3.172,2.31,10.7.946,16.545-1.711,12.182-5.539,30.236-22.817,30.236-22.817s1.143-.741,1.712,0,0.091,1.517-1.141,2.852c-18.762,20.332-27.955,24.528-27.955,24.528S592.533,336.412,581,335c-10.357-1.268-17.76-7.67-11-22Zm45.07,53.05s2.03,5.93-3.994,11.979a6.513,6.513,0,0,0-1.141,7.986c2.487,4.859,18.168,17.533,35.371,0,0,0,6.79-7.946-3.423-19.965s-18.646-21.6-17.685-33.085,9.55-20.77,22.249-22.817c0,0,20.86-2.894,21.109,11.409,0,0-1.783,8-4.564,10.838,0,0-3.255,2.246-3.994,0s-0.012-5.247.571-9.127-3.81-14.3-16.545-8.557c0,0-12.494,5.284-5.7,18.254a155.606,155.606,0,0,0,16.545,24.529s13.246,17.662-6.276,32.514c0,0-14.684,11.459-30.807,6.845a26.474,26.474,0,0,1-15.974-11.408s-8.836-12.078,1.712-22.247C642.117,299.532,650.16,291.8,654.668,302.384Z"/>
</svg>
